# xmcd
#
# Track frame offsets: 
#        150
#        14635
#        37881
#        53024
#        73705
#        94960
#        113233
#        128343
#        140486
#        156927
#        173296
#        191867
#        207801
#        226148
#
# Disc length: 3198 seconds
#
# Revision: 0
# Processed by: cddbd v1.5.1PL0 Copyright (c) Steve Scherf et al.
# Submitted via: ExactAudioCopy v0.95a5
#
DISCID=b60c7c0e
DTITLE=Shadowdogs - Halfway To Someday
DYEAR=2005
DGENRE=americana
TTITLE0=Miracle Mile
TTITLE1=Long Way Down
TTITLE2=Abilene
TTITLE3=Rolling Away
TTITLE4=Amanda
TTITLE5=Desert City
TTITLE6=Carolyn
TTITLE7=Thorns
TTITLE8=Best of Me
TTITLE9=Everybody
TTITLE10=Missing You
TTITLE11=Trouble
TTITLE12=Open Road
TTITLE13=The Crush
EXTD=
EXTT0=
EXTT1=
EXTT2=
EXTT3=
EXTT4=
EXTT5=
EXTT6=
EXTT7=
EXTT8=
EXTT9=
EXTT10=
EXTT11=
EXTT12=
EXTT13=
PLAYORDER=
